<svg width="3630" height="970" viewBox="0 0 3630 970" fill="none" xmlns="http://www.w3.org/2000/svg">
<path d="M1580.71 163.051V0L1685.91 0V29.2405L1614.18 29.2405V66.3075L1681.46 66.3075V95.6568L1614.18 95.6568V133.811L1687 133.811V163.051L1580.71 163.051Z" fill="white"/>
<path d="M1430.03 163.051H1396.56V0L1430.03 0V68.1554L1500.57 68.1554V0L1534.05 0V163.051H1500.57V97.396L1430.03 97.396V163.051Z" fill="white"/>
<path d="M1312.83 163.051H1279.36V29.2405L1231.32 29.2405V0L1360.98 0V29.2405L1312.83 29.2405V163.051Z" fill="white"/>
<path d="M2310.51 555.91V181.852H2432.93C2478.15 181.852 2517.29 189.499 2550.37 204.794C2583.45 220.089 2609.05 241.701 2627.17 269.631C2645.29 297.56 2654.35 330.644 2654.35 368.881C2654.35 406.952 2645.29 440.035 2627.17 468.131C2609.05 496.061 2583.45 517.673 2550.37 532.968C2517.29 548.263 2478.15 555.91 2432.93 555.91H2310.51ZM2387.31 488.829H2435.68C2465.6 488.829 2490.95 484.174 2511.73 474.864C2532.67 465.388 2548.54 451.756 2559.35 433.967C2570.32 416.012 2575.8 394.317 2575.8 368.881C2575.8 343.279 2570.32 321.583 2559.35 303.795C2548.54 286.006 2532.67 272.457 2511.73 263.147C2490.95 253.671 2465.6 248.933 2435.68 248.933H2387.31V488.829Z" fill="white"/>
<path d="M2249.43 555.91H2161.16L1986.38 300.553V555.91H1909.58V181.852H1997.85L2172.63 437.708V181.852H2249.43V555.91Z" fill="white"/>
<path d="M1574.72 555.91H1494.19L1643.29 181.852H1724.32L1873.18 555.91H1792.64L1761.97 475.612H1605.39L1574.72 555.91ZM1630.57 408.282H1737.04L1683.68 269.631L1630.57 408.282Z" fill="white"/>
<path d="M1477.72 555.91H1233.37V181.852H1310.17V488.829H1477.72V555.91Z" fill="white"/>
<path d="M3354.23 921.465L3390.63 862.862C3402.1 872.172 3413.16 879.819 3423.8 885.804C3434.6 891.623 3445.24 895.946 3455.71 898.772C3466.18 901.432 3476.91 902.762 3487.88 902.762C3500.84 902.762 3512.06 900.933 3521.54 897.276C3531.01 893.618 3538.32 888.381 3543.48 881.565C3548.8 874.749 3551.46 866.852 3551.46 857.875C3551.46 847.401 3548.13 838.59 3541.48 831.441C3534.83 824.293 3526.11 818.058 3515.3 812.738C3504.66 807.252 3493.11 802.015 3480.65 797.028C3468.51 792.04 3456.29 786.637 3443.99 780.819C3431.86 774.834 3420.64 767.768 3410.33 759.622C3400.19 751.476 3391.96 741.584 3385.65 729.947C3379.5 718.143 3376.42 703.846 3376.42 687.054C3376.42 665.11 3381.91 646.157 3392.88 630.198C3404.02 614.238 3419.23 601.935 3438.51 593.29C3457.79 584.645 3479.81 580.323 3504.58 580.323C3522.03 580.323 3540.15 582.65 3558.94 587.305C3577.89 591.96 3596.75 599.026 3615.54 608.502L3585.37 670.596C3573.56 663.447 3560.85 657.795 3547.22 653.639C3533.59 649.482 3520.79 647.404 3508.82 647.404C3498.02 647.404 3488.54 649.067 3480.4 652.392C3472.42 655.717 3466.18 660.372 3461.7 666.357C3457.21 672.175 3454.96 679.075 3454.96 687.054C3454.96 696.531 3458.2 704.76 3464.69 711.742C3471.17 718.559 3479.56 724.627 3489.87 729.947C3500.34 735.266 3511.56 740.586 3523.53 745.906C3535.83 751.226 3548.22 757.045 3560.68 763.362C3573.32 769.68 3584.78 777.161 3595.09 785.806C3605.56 794.285 3613.96 804.509 3620.27 816.479C3626.76 828.282 3630 842.497 3630 859.122C3630 881.066 3624.18 900.351 3612.54 916.976C3600.91 933.435 3584.7 946.319 3563.92 955.629C3543.15 964.772 3518.96 969.344 3491.37 969.344C3466.1 969.344 3441.91 965.271 3418.81 957.125C3395.7 948.979 3374.18 937.092 3354.23 921.465Z" fill="white"/>
<path d="M3330.8 961.863H3245.78L3167.24 826.703H3095.93V961.863H3019.13V587.804H3170.73C3200.81 587.804 3226.58 592.542 3248.02 602.018C3269.46 611.494 3285.84 625.21 3297.14 643.165C3308.61 660.953 3314.34 682.316 3314.34 707.253C3314.34 732.856 3308.28 754.717 3296.14 772.838C3284.17 790.793 3267.05 804.259 3244.78 813.237L3330.8 961.863ZM3095.93 765.607H3164.99C3187.76 765.607 3205.22 760.869 3217.35 751.392C3229.65 741.75 3235.8 728.034 3235.8 710.246C3235.8 692.457 3229.65 678.825 3217.35 669.349C3205.22 659.706 3187.76 654.885 3164.99 654.885H3095.93V765.607Z" fill="white"/>
<path d="M2716.92 961.863V587.804H2958.28V654.885H2793.72V739.921H2948.06V807.252H2793.72V894.782H2960.78V961.863H2716.92Z" fill="white"/>
<path d="M2425.2 961.863H2348.41V587.804H2425.2V771.841C2432.68 760.869 2439.83 750.727 2446.64 741.417C2453.46 732.108 2459.28 724.46 2464.1 718.475L2567.82 587.804H2658.33L2521.2 760.37L2684.76 961.863H2585.28L2472.08 821.965L2425.2 881.066V961.863Z" fill="white"/>
<path d="M2287.32 961.863H2199.06L2024.27 706.505V961.863H1947.48V587.804H2035.74L2210.53 843.66V587.804H2287.32V961.863Z" fill="white"/>
<path d="M1612.62 961.863H1532.08L1681.18 587.804H1762.22L1911.07 961.863H1830.54L1799.87 881.565H1643.29L1612.62 961.863ZM1668.47 814.234H1774.93L1721.58 675.583L1668.47 814.234Z" fill="white"/>
<path d="M1233.37 961.863V587.804H1371.76C1411.98 587.804 1443.15 596.366 1465.26 613.489C1487.53 630.447 1498.67 654.303 1498.67 685.059C1498.67 703.845 1494.26 720.47 1485.45 734.934C1476.64 749.231 1464.76 760.12 1449.8 767.602C1471.07 773.919 1487.61 784.808 1499.42 800.269C1511.38 815.564 1517.37 834.35 1517.37 856.628C1517.37 877.907 1512.13 896.444 1501.66 912.238C1491.35 927.865 1476.73 940.084 1457.78 948.895C1438.99 957.54 1416.89 961.863 1391.45 961.863H1233.37ZM1310.17 744.41H1367.52C1384.64 744.41 1398.19 740.337 1408.16 732.191C1418.13 724.045 1423.12 712.989 1423.12 699.024C1423.12 685.392 1418.05 674.669 1407.91 666.855C1397.94 658.875 1384.06 654.885 1366.27 654.885H1310.17V744.41ZM1310.17 894.782H1372.25C1385.88 894.782 1397.69 892.87 1407.66 889.046C1417.63 885.056 1425.28 879.487 1430.6 872.338C1436.08 865.023 1438.83 856.544 1438.83 846.902C1438.83 837.26 1436.33 829.03 1431.35 822.214C1426.53 815.398 1419.46 810.244 1410.15 806.753C1400.85 803.096 1389.79 801.267 1376.99 801.267H1310.17V894.782Z" fill="white"/>
<path d="M0 133.301C0 64.9518 55.4003 9.54346 123.74 9.54346H830.089C898.429 9.54346 953.829 64.9517 953.829 133.301V839.752C953.829 908.102 898.429 963.51 830.089 963.51H123.74C55.4003 963.51 0 908.102 0 839.752V133.301Z" fill="#A3EDE6"/>
<path d="M594.957 623.834C598.329 622.011 601.311 619.796 603.905 617.191C606.498 614.326 608.703 610.679 610.518 606.25C612.334 601.822 613.76 596.351 614.798 589.839C615.835 583.066 616.354 574.99 616.354 565.612V408.139C616.354 398.76 615.835 390.815 614.798 384.303C613.76 377.79 612.334 372.32 610.518 367.891C608.703 363.462 606.498 359.946 603.905 357.341C601.311 354.475 598.329 352.131 594.957 350.307H682.1C704.663 350.307 723.207 351.74 737.731 354.605C752.514 357.21 764.185 360.988 772.744 365.937C781.302 370.626 787.267 376.227 790.639 382.74C794.27 389.252 796.085 396.286 796.085 403.84C796.085 419.47 789.991 430.932 777.801 438.227C765.871 445.521 748.624 450.47 726.06 453.075C754.848 458.806 776.115 469.877 789.861 486.289C803.866 502.44 810.868 521.196 810.868 542.557C810.868 569.389 800.235 589.708 778.968 603.515C757.701 617.061 725.412 623.834 682.1 623.834H594.957ZM683.267 448.777C697.791 448.777 711.018 449.949 722.948 452.294C728.394 447.084 732.155 440.701 734.23 433.147C736.564 425.332 737.731 417.517 737.731 409.702C737.731 393.029 733.192 379.614 724.115 369.454C715.038 359.294 701.032 354.215 682.1 354.215H680.155V448.777H683.267ZM682.1 619.927C703.107 619.927 719.058 612.763 729.95 598.435C741.103 584.108 746.679 564.179 746.679 538.65C746.679 524.583 744.993 512.209 741.621 501.528C738.509 490.848 734.1 481.861 728.394 474.567C722.688 467.272 715.945 461.802 708.165 458.155C700.643 454.508 692.344 452.684 683.267 452.684H680.155V619.927H682.1Z" fill="#334155"/>
<path d="M383.845 622.794C391.581 618.382 396.996 611.765 400.09 602.941C403.442 594.118 405.118 581.402 405.118 564.793V407.919C405.118 391.569 403.442 378.983 400.09 370.16C396.996 361.336 391.581 354.719 383.845 350.307H486.344C478.866 354.719 473.451 361.336 470.099 370.16C466.747 378.983 465.071 391.569 465.071 407.919V618.901H470.872C487.633 618.901 501.3 614.879 511.872 606.834C522.702 598.789 531.985 588.928 539.721 577.25C547.715 565.572 555.064 553.245 561.768 540.269C568.73 527.034 576.595 515.226 585.362 504.846C582.01 513.929 579.173 523.661 576.853 534.041C574.79 544.421 573.243 555.061 572.211 565.961C571.18 576.601 570.793 587.241 571.051 597.881C571.309 608.521 572.211 618.771 573.758 628.633C568.859 626.816 563.702 625.389 558.287 624.351C553.13 623.313 547.457 622.794 541.268 622.794H383.845Z" fill="#334155"/>
<path d="M200.632 623.834C204.026 622.018 207.029 619.812 209.64 617.217C212.252 614.362 214.471 610.729 216.299 606.317C218.127 601.906 219.563 596.456 220.607 589.968C221.652 583.221 222.174 575.176 222.174 565.834V355.24H215.907C207.813 355.24 200.893 359.393 195.148 367.697C189.665 376.001 184.181 385.993 178.698 397.671C173.476 409.349 167.862 421.416 161.856 433.872C155.85 446.069 148.278 456.19 139.139 464.235C145.667 424.011 145.667 384.435 139.139 345.509C144.1 347.325 149.192 348.753 154.414 349.791C159.898 350.829 165.773 351.348 172.039 351.348H336.543C342.81 351.348 348.555 350.829 353.777 349.791C359.261 348.753 364.483 347.325 369.444 345.509C362.916 384.435 362.916 424.011 369.444 464.235C363.439 458.785 358.086 452.427 353.386 445.161C348.947 437.635 344.769 429.85 340.852 421.805C336.935 413.76 333.149 405.845 329.493 398.06C326.099 390.015 322.574 382.878 318.918 376.65C315.262 370.162 311.346 364.972 307.168 361.079C302.99 357.187 298.159 355.24 292.676 355.24H286.409V565.834C286.409 575.176 286.931 583.221 287.976 589.968C289.02 596.456 290.456 601.906 292.284 606.317C294.112 610.729 296.331 614.362 298.943 617.217C301.554 619.812 304.557 622.018 307.951 623.834H200.632Z" fill="#334155"/>
</svg>
