<svg width="3645" height="974" viewBox="0 0 3645 974" fill="none" xmlns="http://www.w3.org/2000/svg">
<path d="M1587.23 163.701V0L1692.88 0V29.3571L1620.85 29.3571V66.5719L1688.4 66.5719V96.0381L1620.85 96.0381V134.344L1693.97 134.344V163.701L1587.23 163.701Z" fill="#334155"/>
<path d="M1435.94 163.701H1402.33V0L1435.94 0V68.4271L1506.77 68.4271V0L1540.38 0V163.701H1506.77V97.7842L1435.94 97.7842V163.701Z" fill="#334155"/>
<path d="M1318.26 163.701H1284.65V29.3571L1236.41 29.3571V0L1366.61 0V29.3571L1318.26 29.3571V163.701Z" fill="#334155"/>
<path d="M2320.06 558.125V182.575H2442.99C2488.39 182.575 2527.69 190.253 2560.91 205.609C2594.12 220.965 2619.83 242.663 2638.02 270.704C2656.22 298.745 2665.31 331.961 2665.31 370.35C2665.31 408.573 2656.22 441.788 2638.02 469.996C2619.83 498.037 2594.12 519.736 2560.91 535.092C2527.69 550.447 2488.39 558.125 2442.99 558.125H2320.06ZM2397.17 490.777H2445.74C2475.78 490.777 2501.24 486.103 2522.1 476.756C2543.13 467.242 2559.07 453.555 2569.92 435.696C2580.94 417.67 2586.45 395.888 2586.45 370.35C2586.45 344.646 2580.94 322.864 2569.92 305.005C2559.07 287.145 2543.13 273.542 2522.1 264.195C2501.24 254.681 2475.78 249.924 2445.74 249.924H2397.17V490.777Z" fill="#334155"/>
<path d="M2258.72 558.125H2170.09L1994.58 301.75V558.125H1917.47V182.575H2006.1L2181.61 439.451V182.575H2258.72V558.125Z" fill="#334155"/>
<path d="M1581.22 558.125H1500.35L1650.07 182.575H1731.44L1880.91 558.125H1800.04L1769.25 477.507H1612.02L1581.22 558.125ZM1637.31 409.908H1744.21L1690.63 270.704L1637.31 409.908Z" fill="#334155"/>
<path d="M1483.83 558.125H1238.47V182.575H1315.59V490.777H1483.83V558.125Z" fill="#334155"/>
<path d="M3368.09 925.136L3404.65 866.3C3416.16 875.647 3427.26 883.325 3437.95 889.334C3448.8 895.176 3459.48 899.516 3469.99 902.353C3480.51 905.024 3491.27 906.359 3502.29 906.359C3515.31 906.359 3526.58 904.523 3536.09 900.851C3545.6 897.179 3552.95 891.921 3558.12 885.078C3563.46 878.234 3566.13 870.306 3566.13 861.293C3566.13 850.778 3562.8 841.931 3556.12 834.754C3549.44 827.577 3540.68 821.318 3529.83 815.977C3519.15 810.468 3507.55 805.211 3495.03 800.203C3482.85 795.196 3470.58 789.771 3458.23 783.93C3446.04 777.921 3434.77 770.827 3424.43 762.648C3414.24 754.47 3405.98 744.539 3399.64 732.855C3393.46 721.004 3390.38 706.65 3390.38 689.792C3390.38 667.759 3395.88 648.732 3406.9 632.708C3418.08 616.685 3433.36 604.333 3452.72 595.654C3472.08 586.974 3494.2 582.635 3519.06 582.635C3536.59 582.635 3554.78 584.972 3573.64 589.645C3592.67 594.319 3611.62 601.412 3630.48 610.926L3600.18 673.268C3588.33 666.09 3575.56 660.415 3561.88 656.243C3548.19 652.07 3535.34 649.983 3523.32 649.983C3512.47 649.983 3502.96 651.653 3494.78 654.991C3486.77 658.329 3480.51 663.002 3476 669.011C3471.5 674.853 3469.24 681.78 3469.24 689.792C3469.24 699.306 3472.5 707.568 3479.01 714.578C3485.52 721.421 3493.94 727.514 3504.29 732.855C3514.81 738.196 3526.08 743.537 3538.09 748.878C3550.44 754.219 3562.88 760.061 3575.4 766.404C3588.08 772.747 3599.6 780.258 3609.95 788.937C3620.46 797.449 3628.89 807.714 3635.24 819.732C3641.74 831.583 3645 845.854 3645 862.545C3645 884.577 3639.16 903.939 3627.47 920.63C3615.79 937.154 3599.52 950.09 3578.65 959.437C3557.79 968.617 3533.5 973.207 3505.8 973.207C3480.42 973.207 3456.14 969.118 3432.94 960.939C3409.74 952.76 3388.12 940.826 3368.09 925.136Z" fill="#334155"/>
<path d="M3344.56 965.696H3259.18L3180.32 829.997H3108.71V965.696H3031.6V590.146H3183.82C3214.03 590.146 3239.9 594.903 3261.44 604.417C3282.97 613.931 3299.41 627.701 3310.76 645.727C3322.28 663.587 3328.03 685.035 3328.03 710.072C3328.03 735.776 3321.94 757.725 3309.76 775.918C3297.74 793.944 3280.55 807.464 3258.18 816.477L3344.56 965.696ZM3108.71 768.657H3178.06C3200.93 768.657 3218.46 763.9 3230.64 754.387C3242.99 744.706 3249.17 730.936 3249.17 713.076C3249.17 695.217 3242.99 681.53 3230.64 672.016C3218.46 662.335 3200.93 657.495 3178.06 657.495H3108.71V768.657Z" fill="#334155"/>
<path d="M2728.15 965.696V590.146H2970.51V657.495H2805.27V742.87H2960.24V810.469H2805.27V898.347H2973.01V965.696H2728.15Z" fill="#334155"/>
<path d="M2435.22 965.696H2358.11V590.146H2435.22V774.917C2442.73 763.9 2449.91 753.719 2456.75 744.372C2463.6 735.025 2469.44 727.347 2474.28 721.338L2578.43 590.146H2669.32L2531.61 763.4L2695.86 965.696H2595.96L2482.29 825.24L2435.22 884.577V965.696Z" fill="#334155"/>
<path d="M2296.77 965.696H2208.14L2032.64 709.321V965.696H1955.52V590.146H2044.15L2219.66 847.022V590.146H2296.77V965.696Z" fill="#334155"/>
<path d="M1619.28 965.696H1538.41L1688.13 590.146H1769.5L1918.97 965.696H1838.1L1807.3 885.078H1650.07L1619.28 965.696ZM1675.36 817.479H1782.27L1728.69 678.275L1675.36 817.479Z" fill="#334155"/>
<path d="M1238.47 965.696V590.146H1377.43C1417.82 590.146 1449.12 598.742 1471.31 615.934C1493.68 632.959 1504.86 656.91 1504.86 687.789C1504.86 706.65 1500.44 723.341 1491.59 737.862C1482.75 752.217 1470.81 763.149 1455.79 770.66C1477.16 777.003 1493.76 787.936 1505.61 803.458C1517.63 818.814 1523.64 837.675 1523.64 860.041C1523.64 881.406 1518.38 900.017 1507.87 915.873C1497.52 931.563 1482.83 943.831 1463.8 952.677C1444.94 961.356 1422.74 965.696 1397.21 965.696H1238.47ZM1315.59 747.376H1373.17C1390.36 747.376 1403.97 743.287 1413.98 735.108C1424 726.93 1429 715.83 1429 701.81C1429 688.123 1423.91 677.357 1413.73 669.512C1403.72 661.501 1389.78 657.495 1371.92 657.495H1315.59V747.376ZM1315.59 898.347H1377.93C1391.61 898.347 1403.47 896.428 1413.48 892.589C1423.49 888.583 1431.17 882.992 1436.51 875.814C1442.02 868.47 1444.78 859.958 1444.78 850.277C1444.78 840.596 1442.27 832.334 1437.26 825.491C1432.42 818.647 1425.33 813.473 1415.98 809.968C1406.64 806.296 1395.54 804.46 1382.68 804.46H1315.59V898.347Z" fill="#334155"/>
<path d="M0 133.829C0 65.2073 55.6292 9.57812 124.251 9.57812H833.518C902.14 9.57812 957.77 65.2073 957.77 133.829V843.097C957.77 911.719 902.14 967.348 833.518 967.348H124.251C55.6292 967.348 0 911.719 0 843.097V133.829Z" fill="#334155"/>
<path d="M597.414 626.321C600.8 624.491 603.794 622.267 606.399 619.652C609.003 616.775 611.217 613.114 613.04 608.667C614.863 604.221 616.295 598.729 617.337 592.19C618.378 585.39 618.899 577.282 618.899 567.867V409.766C618.899 400.35 618.378 392.373 617.337 385.835C616.295 379.296 614.863 373.804 613.04 369.358C611.217 364.911 609.003 361.381 606.399 358.765C603.794 355.888 600.8 353.534 597.414 351.704H684.917C707.574 351.704 726.194 353.142 740.778 356.019C755.622 358.634 767.341 362.427 775.935 367.396C784.529 372.104 790.519 377.727 793.904 384.265C797.55 390.804 799.373 397.866 799.373 405.45C799.373 421.143 793.253 432.65 781.013 439.974C769.034 447.297 751.716 452.266 729.059 454.881C757.966 460.635 779.321 471.751 793.123 488.228C807.186 504.443 814.218 523.274 814.218 544.721C814.218 571.659 803.54 592.06 782.185 605.921C760.83 619.521 728.408 626.321 684.917 626.321H597.414ZM686.089 450.566C700.672 450.566 713.954 451.743 725.934 454.097C731.403 448.866 735.179 442.458 737.262 434.874C739.606 427.027 740.778 419.181 740.778 411.335C740.778 394.596 736.22 381.127 727.106 370.927C717.991 360.727 703.928 355.627 684.917 355.627H682.964V450.566H686.089ZM684.917 622.398C706.011 622.398 722.027 615.206 732.965 600.821C744.163 586.436 749.762 566.429 749.762 540.798C749.762 526.674 748.07 514.251 744.684 503.528C741.559 492.805 737.132 483.782 731.403 476.459C725.673 469.135 718.902 463.643 711.089 459.981C703.537 456.32 695.203 454.489 686.089 454.489H682.964V622.398H684.917Z" fill="#A3EDE6"/>
<path d="M385.429 625.277C393.196 620.848 398.634 614.204 401.741 605.345C405.107 596.487 406.79 583.72 406.79 567.045V409.545C406.79 393.13 405.107 380.494 401.741 371.635C398.634 362.777 393.196 356.133 385.429 351.704H488.351C480.843 356.133 475.405 362.777 472.039 371.635C468.673 380.494 466.99 393.13 466.99 409.545V621.369H472.816C489.646 621.369 503.369 617.33 513.985 609.253C524.86 601.176 534.181 591.276 541.949 579.551C549.976 567.827 557.355 555.451 564.087 542.423C571.078 529.135 578.975 517.281 587.779 506.859C584.413 515.978 581.564 525.748 579.234 536.17C577.163 546.592 575.609 557.274 574.573 568.217C573.538 578.9 573.149 589.582 573.408 600.264C573.667 610.947 574.573 621.238 576.127 631.139C571.207 629.315 566.029 627.882 560.592 626.84C555.413 625.798 549.717 625.277 543.502 625.277H385.429Z" fill="#A3EDE6"/>
<path d="M201.466 626.321C204.875 624.498 207.89 622.283 210.512 619.677C213.134 616.811 215.362 613.164 217.198 608.735C219.033 604.305 220.475 598.834 221.524 592.32C222.573 585.546 223.097 577.469 223.097 568.089V356.656H216.804C208.676 356.656 201.728 360.825 195.96 369.162C190.454 377.5 184.948 387.531 179.441 399.255C174.198 410.98 168.56 423.095 162.53 435.602C156.499 447.847 148.896 458.009 139.719 466.086C146.274 425.701 146.274 385.968 139.719 346.886C144.7 348.71 149.813 350.143 155.057 351.185C160.563 352.227 166.463 352.748 172.755 352.748H337.939C344.232 352.748 350 352.227 355.244 351.185C360.75 350.143 365.994 348.71 370.976 346.886C364.421 385.968 364.421 425.701 370.976 466.086C364.945 460.614 359.57 454.231 354.851 446.935C350.393 439.38 346.198 431.563 342.265 423.486C338.332 415.409 334.531 407.463 330.86 399.646C327.451 391.569 323.912 384.404 320.241 378.151C316.57 371.638 312.637 366.427 308.442 362.519C304.247 358.61 299.396 356.656 293.89 356.656H287.597V568.089C287.597 577.469 288.122 585.546 289.171 592.32C290.219 598.834 291.661 604.305 293.497 608.735C295.332 613.164 297.561 616.811 300.183 619.677C302.805 622.283 305.82 624.498 309.229 626.321H201.466Z" fill="#A3EDE6"/>
</svg>
