<svg xmlns="http://www.w3.org/2000/svg" viewBox="0 0 80 80">
  <rect width="80" height="80" rx="6" fill="#fff"/>
  <!-- document stack -->
  <rect x="12" y="14" width="20" height="26" rx="2" fill="none" stroke="#222" stroke-width="1.5"/>
  <line x1="16" y1="20" x2="28" y2="20" stroke="#222" stroke-width="1"/>
  <line x1="16" y1="24" x2="26" y2="24" stroke="#222" stroke-width="1"/>
  <line x1="16" y1="28" x2="24" y2="28" stroke="#222" stroke-width="1"/>
  <line x1="16" y1="32" x2="27" y2="32" stroke="#222" stroke-width="1"/>
  <!-- magnifying glass -->
  <circle cx="55" cy="24" r="9" fill="none" stroke="#222" stroke-width="1.5"/>
  <line x1="61" y1="30" x2="67" y2="36" stroke="#222" stroke-width="2" stroke-linecap="round"/>
  <!-- pen sketch lines -->
  <path d="M14 50 Q25 44 38 50 Q52 56 66 48" fill="none" stroke="#222" stroke-width="1.2" stroke-dasharray="3 2"/>
  <path d="M14 58 Q30 52 45 58 Q58 64 66 56" fill="none" stroke="#222" stroke-width="1" stroke-dasharray="2 2"/>
  <!-- crosshatch corner -->
  <line x1="58" y1="50" x2="68" y2="60" stroke="#222" stroke-width="0.6" opacity="0.4"/>
  <line x1="62" y1="50" x2="72" y2="60" stroke="#222" stroke-width="0.6" opacity="0.4"/>
  <line x1="58" y1="54" x2="68" y2="64" stroke="#222" stroke-width="0.6" opacity="0.4"/>
</svg>