<svg width="958" height="958" viewBox="0 0 958 958" fill="none" xmlns="http://www.w3.org/2000/svg">
<path d="M0 124.251C0 55.6292 55.6292 0 124.251 0H833.518C902.14 0 957.77 55.6292 957.77 124.251V833.518C957.77 902.14 902.14 957.77 833.518 957.77H124.251C55.6292 957.77 0 902.14 0 833.518V124.251Z" fill="#334155"/>
<path d="M597.414 616.743C600.8 614.912 603.794 612.689 606.399 610.073C609.003 607.196 611.217 603.535 613.04 599.089C614.863 594.643 616.295 589.15 617.337 582.612C618.378 575.812 618.899 567.704 618.899 558.288V400.187C618.899 390.772 618.378 382.795 617.337 376.256C616.295 369.718 614.863 364.225 613.04 359.779C611.217 355.333 609.003 351.802 606.399 349.187C603.794 346.31 600.8 343.956 597.414 342.125H684.917C707.574 342.125 726.194 343.563 740.778 346.44C755.622 349.056 767.341 352.848 775.935 357.817C784.529 362.525 790.519 368.148 793.904 374.687C797.55 381.225 799.373 388.287 799.373 395.872C799.373 411.564 793.253 423.072 781.013 430.395C769.034 437.718 751.716 442.687 729.059 445.303C757.966 451.057 779.321 462.172 793.123 478.649C807.186 494.865 814.218 513.696 814.218 535.142C814.218 562.081 803.54 582.481 782.185 596.343C760.83 609.943 728.408 616.743 684.917 616.743H597.414ZM686.089 440.987C700.672 440.987 713.954 442.164 725.934 444.518C731.403 439.287 735.179 432.88 737.262 425.295C739.606 417.449 740.778 409.603 740.778 401.756C740.778 385.018 736.22 371.548 727.106 361.348C717.991 351.148 703.928 346.048 684.917 346.048H682.964V440.987H686.089ZM684.917 612.82C706.011 612.82 722.027 605.627 732.965 591.243C744.163 576.858 749.762 556.85 749.762 531.219C749.762 517.096 748.07 504.673 744.684 493.949C741.559 483.226 737.132 474.203 731.403 466.88C725.673 459.557 718.902 454.064 711.089 450.403C703.537 446.741 695.203 444.911 686.089 444.911H682.964V612.82H684.917Z" fill="#A3EDE6"/>
<path d="M385.429 615.698C393.196 611.269 398.634 604.625 401.741 595.767C405.107 586.908 406.79 574.141 406.79 557.466V399.966C406.79 383.552 405.107 370.915 401.741 362.057C398.634 353.198 393.196 346.554 385.429 342.125H488.351C480.843 346.554 475.405 353.198 472.039 362.057C468.673 370.915 466.99 383.552 466.99 399.966V611.79H472.816C489.646 611.79 503.369 607.752 513.985 599.675C524.86 591.598 534.181 581.697 541.949 569.972C549.976 558.248 557.355 545.872 564.087 532.845C571.078 519.557 578.975 507.702 587.779 497.28C584.413 506.399 581.564 516.17 579.234 526.592C577.163 537.013 575.609 547.696 574.573 558.639C573.538 569.321 573.149 580.003 573.408 590.686C573.667 601.368 574.573 611.66 576.127 621.561C571.207 619.737 566.029 618.304 560.592 617.262C555.413 616.219 549.717 615.698 543.502 615.698H385.429Z" fill="#A3EDE6"/>
<path d="M201.466 616.743C204.875 614.919 207.89 612.705 210.512 610.099C213.134 607.233 215.362 603.586 217.198 599.156C219.033 594.727 220.475 589.256 221.524 582.742C222.573 575.968 223.097 567.891 223.097 558.511V347.078H216.804C208.676 347.078 201.728 351.247 195.96 359.584C190.454 367.922 184.948 377.953 179.441 389.677C174.198 401.402 168.56 413.517 162.53 426.024C156.499 438.269 148.896 448.43 139.719 456.507C146.274 416.123 146.274 376.39 139.719 337.308C144.7 339.131 149.813 340.564 155.057 341.607C160.563 342.649 166.463 343.17 172.755 343.17H337.939C344.232 343.17 350 342.649 355.244 341.607C360.75 340.564 365.994 339.131 370.976 337.308C364.421 376.39 364.421 416.123 370.976 456.507C364.945 451.036 359.57 444.653 354.851 437.357C350.393 429.801 346.198 421.985 342.265 413.908C338.332 405.831 334.531 397.885 330.86 390.068C327.451 381.991 323.912 374.826 320.241 368.573C316.57 362.059 312.637 356.849 308.442 352.94C304.247 349.032 299.396 347.078 293.89 347.078H287.597V558.511C287.597 567.891 288.122 575.968 289.171 582.742C290.219 589.256 291.661 594.727 293.497 599.156C295.332 603.586 297.561 607.233 300.183 610.099C302.805 612.705 305.82 614.919 309.229 616.743H201.466Z" fill="#A3EDE6"/>
</svg>
